<svg width="776" height="205" viewBox="0 0 776 205" fill="none" xmlns="http://www.w3.org/2000/svg">
<path d="M3.41421 60.4142C2.15428 59.1543 3.04662 57 4.82843 57H30C31.1046 57 32 57.8954 32 59V84.1716C32 85.9534 29.8457 86.8457 28.5858 85.5858L3.41421 60.4142Z" fill="black"/>
<path d="M127 161.413C93.5 161.413 93.5 161.413 93.5 129.5C93.5001 92 127 92 127 92H196.882C196.882 92 160.5 161.413 127 161.413Z" fill="black"/>
<path d="M89.5908 9C118.105 9.00019 141.22 32.1152 141.22 60.6289V86H127V90.8281C127 86.0567 126.996 86.0007 126.993 86H126.923C126.889 86.0003 126.846 86.001 126.796 86.002C126.695 86.0038 126.563 86.0076 126.4 86.0137C126.076 86.0258 125.63 86.0489 125.082 86.0928C123.988 86.1803 122.469 86.351 120.665 86.6875C117.082 87.356 112.23 88.7035 107.319 91.4521C102.373 94.2205 97.345 98.4267 93.5791 104.75C89.8089 111.081 87.5 119.204 87.5 129.5C87.5 137.324 87.4899 143.726 88.0635 148.645C88.6352 153.547 89.9041 158.295 93.5488 161.768C97.134 165.183 101.968 166.348 107.001 166.881C112.103 167.421 118.765 167.413 127 167.413C137.308 167.413 147.119 162.168 155.62 155.394L186.174 185.743C189.973 189.517 187.3 196 181.945 196H107.375C69.0395 196 37.9619 164.922 37.9619 126.587V60.6289C37.962 32.1151 61.077 9 89.5908 9ZM96.6689 156.264C96.6585 156.249 96.6471 156.236 96.6367 156.222L96.6172 156.193C96.6342 156.217 96.6517 156.24 96.6689 156.264ZM89.4502 44C83.4021 44.0002 78.4991 48.8703 78.499 54.8779C78.499 60.8856 83.402 65.7556 89.4502 65.7559C95.4986 65.7559 100.402 60.8857 100.402 54.8779C100.402 48.8702 95.4985 44 89.4502 44Z" fill="black"/>
<path d="M236.562 13.8V41.4H253.842V45H232.722V13.8H236.562ZM255.764 21H259.892L268.484 44.04L265.124 45L255.764 21ZM278.084 21L264.692 54.6H260.516L266.324 41.64L274.004 21H278.084ZM302.767 35.976C302.543 37.96 301.903 39.672 300.847 41.112C299.823 42.52 298.527 43.608 296.959 44.376C295.391 45.112 293.695 45.48 291.871 45.48C289.823 45.48 287.903 44.984 286.111 43.992C284.319 43 282.863 41.576 281.743 39.72C280.655 37.832 280.111 35.608 280.111 33.048C280.111 30.488 280.655 28.28 281.743 26.424C282.863 24.536 284.319 23.08 286.111 22.056C287.903 21.032 289.823 20.52 291.871 20.52C293.695 20.52 295.375 20.904 296.911 21.672C298.479 22.44 299.775 23.528 300.799 24.936C301.855 26.344 302.511 28.024 302.767 29.976H299.263C298.719 28.152 297.775 26.728 296.431 25.704C295.087 24.648 293.567 24.12 291.871 24.12C290.495 24.12 289.199 24.472 287.983 25.176C286.767 25.88 285.791 26.904 285.055 28.248C284.319 29.56 283.951 31.16 283.951 33.048C283.951 34.904 284.319 36.504 285.055 37.848C285.791 39.16 286.751 40.168 287.935 40.872C289.151 41.544 290.463 41.88 291.871 41.88C293.823 41.88 295.407 41.368 296.623 40.344C297.871 39.288 298.767 37.832 299.311 35.976H302.767ZM324.65 37.272H328.25C327.994 38.84 327.418 40.248 326.522 41.496C325.658 42.712 324.506 43.688 323.066 44.424C321.658 45.128 320.026 45.48 318.17 45.48C315.93 45.48 313.914 44.952 312.122 43.896C310.33 42.808 308.906 41.336 307.85 39.48C306.826 37.592 306.314 35.448 306.314 33.048C306.314 30.648 306.81 28.504 307.802 26.616C308.826 24.728 310.218 23.24 311.978 22.152C313.738 21.064 315.722 20.52 317.93 20.52C320.266 20.52 322.234 21.048 323.834 22.104C325.466 23.128 326.666 24.648 327.434 26.664C328.234 28.648 328.554 31.096 328.394 34.008H310.154C310.314 35.576 310.746 36.952 311.45 38.136C312.154 39.32 313.082 40.248 314.234 40.92C315.386 41.56 316.698 41.88 318.17 41.88C319.802 41.88 321.178 41.464 322.298 40.632C323.45 39.768 324.234 38.648 324.65 37.272ZM318.074 24.12C316.09 24.12 314.426 24.696 313.082 25.848C311.738 27 310.842 28.568 310.394 30.552H324.458C324.33 28.44 323.642 26.84 322.394 25.752C321.178 24.664 319.738 24.12 318.074 24.12ZM316.01 16.152L321.098 8.424H326.138L319.418 16.152H316.01ZM350.338 37.272H353.938C353.682 38.84 353.106 40.248 352.21 41.496C351.346 42.712 350.194 43.688 348.754 44.424C347.346 45.128 345.714 45.48 343.858 45.48C341.618 45.48 339.602 44.952 337.81 43.896C336.018 42.808 334.594 41.336 333.538 39.48C332.514 37.592 332.002 35.448 332.002 33.048C332.002 30.648 332.498 28.504 333.49 26.616C334.514 24.728 335.906 23.24 337.666 22.152C339.426 21.064 341.41 20.52 343.618 20.52C345.954 20.52 347.922 21.048 349.522 22.104C351.154 23.128 352.354 24.648 353.122 26.664C353.922 28.648 354.242 31.096 354.082 34.008H335.842C336.002 35.576 336.434 36.952 337.138 38.136C337.842 39.32 338.77 40.248 339.922 40.92C341.074 41.56 342.386 41.88 343.858 41.88C345.49 41.88 346.866 41.464 347.986 40.632C349.138 39.768 349.922 38.648 350.338 37.272ZM343.762 24.12C341.778 24.12 340.114 24.696 338.77 25.848C337.426 27 336.53 28.568 336.082 30.552H350.146C350.018 28.44 349.33 26.84 348.082 25.752C346.866 24.664 345.426 24.12 343.762 24.12Z" fill="black"/>
<path d="M249.042 71.888V123.344H290.322V134H236.274V71.888H249.042ZM293.158 96.656L291.43 93.392C292.39 91.984 293.318 90.416 294.214 88.688C295.174 86.896 295.686 85.104 295.75 83.312L290.47 82.256V71.312H305.158V79.184C305.158 83.664 304.07 87.312 301.894 90.128C299.782 92.88 296.87 95.056 293.158 96.656ZM350.39 135.248C342.134 135.248 335.062 133.968 329.174 131.408C323.35 128.784 318.87 125.072 315.734 120.272C312.662 115.472 311.126 109.712 311.126 102.992C311.126 96.208 312.662 90.416 315.734 85.616C318.87 80.816 323.35 77.136 329.174 74.576C335.062 71.952 342.134 70.64 350.39 70.64C358.71 70.64 365.782 71.952 371.606 74.576C377.43 77.136 381.878 80.816 384.95 85.616C388.086 90.416 389.654 96.208 389.654 102.992C389.654 109.712 388.086 115.472 384.95 120.272C381.878 125.072 377.43 128.784 371.606 131.408C365.782 133.968 358.71 135.248 350.39 135.248ZM350.39 124.208C355.51 124.208 359.99 123.44 363.83 121.904C367.734 120.368 370.774 118.032 372.95 114.896C375.19 111.76 376.31 107.792 376.31 102.992C376.31 98.192 375.19 94.224 372.95 91.088C370.774 87.952 367.734 85.616 363.83 84.08C359.99 82.48 355.51 81.68 350.39 81.68C345.334 81.68 340.822 82.48 336.854 84.08C332.886 85.616 329.782 87.952 327.542 91.088C325.302 94.224 324.182 98.192 324.182 102.992C324.182 107.792 325.302 111.76 327.542 114.896C329.782 118.032 332.886 120.368 336.854 121.904C340.822 123.44 345.334 124.208 350.39 124.208ZM403.942 71.888H416.71V134H403.942V71.888ZM429.115 113.072H442.075C442.331 115.248 443.323 117.232 445.051 119.024C446.843 120.752 449.179 122.128 452.059 123.152C454.939 124.112 458.171 124.592 461.755 124.592C465.019 124.592 467.707 124.24 469.819 123.536C471.931 122.832 473.499 121.84 474.523 120.56C475.547 119.28 476.059 117.744 476.059 115.952C476.059 114.224 475.419 112.912 474.139 112.016C472.859 111.056 470.843 110.288 468.091 109.712C465.339 109.072 461.723 108.432 457.243 107.792C453.723 107.28 450.395 106.576 447.259 105.68C444.123 104.72 441.339 103.504 438.907 102.032C436.539 100.56 434.651 98.768 433.243 96.656C431.899 94.48 431.227 91.92 431.227 88.976C431.227 85.328 432.251 82.128 434.299 79.376C436.411 76.624 439.515 74.48 443.611 72.944C447.707 71.408 452.731 70.64 458.683 70.64C467.643 70.64 474.523 72.56 479.323 76.4C484.187 80.176 486.555 85.392 486.427 92.048H473.947C473.691 88.272 472.091 85.552 469.147 83.888C466.267 82.224 462.619 81.392 458.203 81.392C454.107 81.392 450.715 82 448.027 83.216C445.403 84.432 444.091 86.512 444.091 89.456C444.091 90.608 444.411 91.632 445.051 92.528C445.691 93.36 446.779 94.096 448.315 94.736C449.851 95.376 451.931 95.984 454.555 96.56C457.179 97.136 460.443 97.712 464.347 98.288C467.995 98.8 471.291 99.504 474.235 100.4C477.243 101.232 479.803 102.352 481.915 103.76C484.091 105.104 485.755 106.832 486.907 108.944C488.059 111.056 488.635 113.648 488.635 116.72C488.635 120.496 487.643 123.792 485.659 126.608C483.739 129.36 480.731 131.504 476.635 133.04C472.603 134.576 467.355 135.344 460.891 135.344C456.283 135.344 452.219 134.864 448.699 133.904C445.179 132.88 442.139 131.536 439.579 129.872C437.019 128.208 434.939 126.384 433.339 124.4C431.739 122.416 430.587 120.432 429.883 118.448C429.243 116.464 428.987 114.672 429.115 113.072ZM512.667 108.08V123.344H560.571V134H499.899V71.888H560.475V82.544H512.667V98H551.835V108.08H512.667ZM586.448 71.888V123.344H627.728V134H573.68V71.888H586.448ZM652.354 108.08V123.344H700.258V134H639.586V71.888H700.162V82.544H652.354V98H691.522V108.08H652.354ZM707.896 71.888H773.368V82.544H707.896V71.888ZM734.296 81.2H747.064V134H734.296V81.2Z" fill="black"/>
<path d="M232.722 192V160.8H245.01C248.242 160.8 250.754 161.536 252.546 163.008C254.37 164.48 255.282 166.528 255.282 169.152C255.282 170.784 254.946 172.112 254.274 173.136C253.634 174.16 252.722 174.928 251.538 175.44C250.354 175.952 248.962 176.288 247.362 176.448L247.458 176.16C248.642 176.224 249.762 176.384 250.818 176.64C251.874 176.864 252.802 177.232 253.602 177.744C254.434 178.256 255.09 178.96 255.57 179.856C256.05 180.752 256.29 181.904 256.29 183.312C256.29 185.2 255.874 186.768 255.042 188.016C254.21 189.264 253.042 190.224 251.538 190.896C250.066 191.536 248.37 191.904 246.45 192H232.722ZM236.562 188.4H245.49C247.666 188.4 249.362 188 250.578 187.2C251.826 186.368 252.45 185.072 252.45 183.312C252.45 181.904 252.05 180.848 251.25 180.144C250.482 179.44 249.49 178.976 248.274 178.752C247.058 178.496 245.81 178.368 244.53 178.368H236.562V188.4ZM236.562 174.768H244.53C246.706 174.768 248.402 174.304 249.618 173.376C250.866 172.416 251.49 171.056 251.49 169.296C251.49 167.568 250.866 166.32 249.618 165.552C248.402 164.784 246.866 164.4 245.01 164.4H236.562V174.768ZM271.996 192.48C269.948 192.48 268.028 191.984 266.236 190.992C264.444 190 262.988 188.576 261.868 186.72C260.78 184.832 260.236 182.608 260.236 180.048C260.236 177.488 260.78 175.28 261.868 173.424C262.988 171.536 264.444 170.08 266.236 169.056C268.028 168.032 269.948 167.52 271.996 167.52C274.044 167.52 275.948 168.032 277.708 169.056C279.5 170.08 280.94 171.536 282.028 173.424C283.116 175.28 283.66 177.488 283.66 180.048C283.66 182.608 283.116 184.832 282.028 186.72C280.94 188.576 279.5 190 277.708 190.992C275.948 191.984 274.044 192.48 271.996 192.48ZM271.996 188.88C273.34 188.88 274.604 188.544 275.788 187.872C276.972 187.2 277.932 186.208 278.668 184.896C279.436 183.552 279.82 181.936 279.82 180.048C279.82 178.16 279.436 176.56 278.668 175.248C277.932 173.904 276.972 172.88 275.788 172.176C274.604 171.472 273.34 171.12 271.996 171.12C270.652 171.12 269.372 171.472 268.156 172.176C266.972 172.848 265.996 173.856 265.228 175.2C264.46 176.512 264.076 178.128 264.076 180.048C264.076 181.936 264.444 183.552 265.18 184.896C265.948 186.208 266.94 187.2 268.156 187.872C269.372 188.544 270.652 188.88 271.996 188.88ZM308.885 192H305.045V168H308.885V192ZM305.285 180.816L305.333 182.16C305.301 182.544 305.205 183.136 305.045 183.936C304.917 184.736 304.677 185.632 304.325 186.624C304.005 187.584 303.525 188.512 302.885 189.408C302.277 190.304 301.477 191.04 300.485 191.616C299.525 192.192 298.325 192.48 296.885 192.48C295.957 192.48 294.997 192.336 294.005 192.048C293.045 191.792 292.149 191.36 291.317 190.752C290.485 190.112 289.813 189.232 289.301 188.112C288.789 186.992 288.533 185.6 288.533 183.936V168H292.373V182.976C292.373 184.416 292.597 185.552 293.045 186.384C293.525 187.184 294.165 187.76 294.965 188.112C295.765 188.464 296.661 188.64 297.653 188.64C299.285 188.64 300.645 188.224 301.733 187.392C302.821 186.56 303.653 185.536 304.229 184.32C304.805 183.104 305.157 181.936 305.285 180.816ZM315.111 168H318.951V192H315.111V168ZM326.631 171.6C324.999 171.6 323.623 172.016 322.503 172.848C321.415 173.648 320.551 174.64 319.911 175.824C319.303 176.976 318.903 178.096 318.711 179.184L318.663 176.4C318.663 176.112 318.727 175.632 318.855 174.96C318.983 174.288 319.223 173.536 319.575 172.704C319.927 171.84 320.391 171.024 320.967 170.256C321.575 169.456 322.343 168.8 323.271 168.288C324.199 167.776 325.319 167.52 326.631 167.52V171.6ZM339.547 188.208C337.851 188.208 336.235 187.808 334.699 187.008C333.195 186.176 331.963 184.992 331.003 183.456C330.075 181.92 329.611 180.08 329.611 177.936C329.611 175.792 330.075 173.952 331.003 172.416C331.931 170.848 333.147 169.648 334.651 168.816C336.155 167.952 337.787 167.52 339.547 167.52C340.091 167.52 340.603 167.568 341.083 167.664C341.595 167.728 342.075 167.84 342.523 168H352.267V172.128C350.891 172.128 349.515 171.872 348.139 171.36C346.795 170.848 345.643 170.32 344.683 169.776L344.491 169.584C345.611 170.192 346.523 170.912 347.227 171.744C347.963 172.576 348.507 173.52 348.859 174.576C349.243 175.6 349.435 176.72 349.435 177.936C349.435 180.08 348.971 181.92 348.043 183.456C347.147 184.992 345.947 186.176 344.443 187.008C342.939 187.808 341.307 188.208 339.547 188.208ZM346.603 201.6V200.544C346.603 198.848 346.155 197.616 345.259 196.848C344.395 196.08 343.083 195.696 341.323 195.696H336.523C335.467 195.696 334.539 195.6 333.739 195.408C332.971 195.248 332.331 194.992 331.819 194.64C331.307 194.288 330.923 193.856 330.667 193.344C330.411 192.832 330.283 192.256 330.283 191.616C330.283 190.4 330.651 189.488 331.387 188.88C332.123 188.24 333.035 187.84 334.123 187.68C335.211 187.52 336.251 187.52 337.243 187.68L339.547 188.208C337.819 188.304 336.475 188.48 335.515 188.736C334.587 188.992 334.123 189.536 334.123 190.368C334.123 190.848 334.299 191.248 334.651 191.568C335.035 191.856 335.595 192 336.331 192H341.323C342.987 192 344.507 192.224 345.883 192.672C347.259 193.152 348.363 193.936 349.195 195.024C350.027 196.144 350.443 197.664 350.443 199.584V201.6H346.603ZM339.547 184.608C340.603 184.608 341.579 184.352 342.475 183.84C343.403 183.328 344.155 182.576 344.731 181.584C345.307 180.592 345.595 179.376 345.595 177.936C345.595 176.496 345.307 175.28 344.731 174.288C344.187 173.264 343.451 172.496 342.523 171.984C341.595 171.44 340.603 171.168 339.547 171.168C338.491 171.168 337.499 171.44 336.571 171.984C335.643 172.496 334.891 173.248 334.315 174.24C333.739 175.232 333.451 176.464 333.451 177.936C333.451 179.376 333.739 180.592 334.315 181.584C334.891 182.576 335.643 183.328 336.571 183.84C337.499 184.352 338.491 184.608 339.547 184.608ZM367.199 192.48C365.151 192.48 363.231 191.984 361.439 190.992C359.647 190 358.191 188.576 357.071 186.72C355.983 184.832 355.439 182.608 355.439 180.048C355.439 177.488 355.983 175.28 357.071 173.424C358.191 171.536 359.647 170.08 361.439 169.056C363.231 168.032 365.151 167.52 367.199 167.52C369.247 167.52 371.151 168.032 372.911 169.056C374.703 170.08 376.143 171.536 377.231 173.424C378.319 175.28 378.863 177.488 378.863 180.048C378.863 182.608 378.319 184.832 377.231 186.72C376.143 188.576 374.703 190 372.911 190.992C371.151 191.984 369.247 192.48 367.199 192.48ZM367.199 188.88C368.543 188.88 369.807 188.544 370.991 187.872C372.175 187.2 373.135 186.208 373.871 184.896C374.639 183.552 375.023 181.936 375.023 180.048C375.023 178.16 374.639 176.56 373.871 175.248C373.135 173.904 372.175 172.88 370.991 172.176C369.807 171.472 368.543 171.12 367.199 171.12C365.855 171.12 364.575 171.472 363.359 172.176C362.175 172.848 361.199 173.856 360.431 175.2C359.663 176.512 359.279 178.128 359.279 180.048C359.279 181.936 359.647 183.552 360.383 184.896C361.151 186.208 362.143 187.2 363.359 187.872C364.575 188.544 365.855 188.88 367.199 188.88ZM388.488 158.4V163.056H383.496V158.4H388.488ZM384.072 168H387.912V192H384.072V168ZM394.471 168H398.311V192H394.471V168ZM406.567 167.52C407.847 167.52 408.999 167.712 410.023 168.096C411.047 168.48 411.911 169.04 412.615 169.776C413.319 170.512 413.863 171.408 414.247 172.464C414.631 173.488 414.823 174.656 414.823 175.968V192H410.983V176.928C410.983 175.072 410.551 173.68 409.687 172.752C408.823 171.824 407.527 171.36 405.799 171.36C404.487 171.36 403.271 171.696 402.151 172.368C401.031 173.04 400.103 173.968 399.367 175.152C398.663 176.304 398.231 177.648 398.071 179.184L398.023 176.4C398.183 175.056 398.503 173.84 398.983 172.752C399.495 171.664 400.119 170.736 400.855 169.968C401.623 169.168 402.487 168.56 403.447 168.144C404.439 167.728 405.479 167.52 406.567 167.52ZM421.769 177.264H435.689V180.816H421.769V177.264ZM457.634 181.488V160.8H461.474V181.488C461.474 183.056 461.25 184.512 460.802 185.856C460.354 187.2 459.682 188.368 458.786 189.36C457.922 190.352 456.85 191.12 455.57 191.664C454.29 192.208 452.818 192.48 451.154 192.48C449.714 192.48 448.37 192.272 447.122 191.856C445.874 191.408 444.786 190.784 443.858 189.984C442.93 189.152 442.178 188.144 441.602 186.96C441.058 185.776 440.754 184.448 440.69 182.976H444.194C444.514 184.928 445.298 186.4 446.546 187.392C447.794 188.384 449.33 188.88 451.154 188.88C452.658 188.88 453.874 188.56 454.802 187.92C455.762 187.28 456.466 186.416 456.914 185.328C457.394 184.208 457.634 182.928 457.634 181.488ZM477.511 192.48C475.623 192.48 473.879 191.952 472.279 190.896C470.711 189.808 469.447 188.336 468.487 186.48C467.559 184.592 467.095 182.448 467.095 180.048C467.095 177.648 467.575 175.504 468.535 173.616C469.495 171.728 470.791 170.24 472.423 169.152C474.087 168.064 475.943 167.52 477.991 167.52C480.231 167.52 481.927 168.096 483.079 169.248C484.263 170.368 485.063 171.872 485.479 173.76C485.927 175.648 486.151 177.744 486.151 180.048C486.151 181.264 486.023 182.592 485.767 184.032C485.511 185.44 485.063 186.8 484.423 188.112C483.815 189.392 482.951 190.448 481.831 191.28C480.711 192.08 479.271 192.48 477.511 192.48ZM478.471 188.832C480.103 188.832 481.447 188.432 482.503 187.632C483.591 186.832 484.391 185.776 484.903 184.464C485.415 183.12 485.671 181.648 485.671 180.048C485.671 178.288 485.399 176.752 484.855 175.44C484.343 174.096 483.543 173.056 482.455 172.32C481.399 171.552 480.071 171.168 478.471 171.168C476.071 171.168 474.215 172.016 472.903 173.712C471.591 175.376 470.935 177.488 470.935 180.048C470.935 181.744 471.255 183.264 471.895 184.608C472.567 185.92 473.463 186.96 474.583 187.728C475.735 188.464 477.031 188.832 478.471 188.832ZM485.671 168H489.511V192H486.007C486.007 192 485.975 191.712 485.911 191.136C485.879 190.56 485.831 189.888 485.767 189.12C485.703 188.352 485.671 187.712 485.671 187.2V168ZM496.247 158.4H500.087V192H496.247V158.4ZM507.31 158.4H511.15V192H507.31V158.4ZM522.644 158.4V163.056H517.652V158.4H522.644ZM518.228 168H522.068V192H518.228V168ZM545.619 184.272H549.219C548.963 185.84 548.387 187.248 547.491 188.496C546.627 189.712 545.475 190.688 544.035 191.424C542.627 192.128 540.995 192.48 539.139 192.48C536.899 192.48 534.883 191.952 533.091 190.896C531.299 189.808 529.875 188.336 528.819 186.48C527.795 184.592 527.283 182.448 527.283 180.048C527.283 177.648 527.779 175.504 528.771 173.616C529.795 171.728 531.187 170.24 532.947 169.152C534.707 168.064 536.691 167.52 538.899 167.52C541.235 167.52 543.203 168.048 544.803 169.104C546.435 170.128 547.635 171.648 548.403 173.664C549.203 175.648 549.523 178.096 549.363 181.008H531.123C531.283 182.576 531.715 183.952 532.419 185.136C533.123 186.32 534.051 187.248 535.203 187.92C536.355 188.56 537.667 188.88 539.139 188.88C540.771 188.88 542.147 188.464 543.267 187.632C544.419 186.768 545.203 185.648 545.619 184.272ZM539.043 171.12C537.059 171.12 535.395 171.696 534.051 172.848C532.707 174 531.811 175.568 531.363 177.552H545.427C545.299 175.44 544.611 173.84 543.363 172.752C542.147 171.664 540.707 171.12 539.043 171.12ZM574.666 192H570.826V168H574.666V192ZM571.066 180.816L571.114 182.16C571.082 182.544 570.986 183.136 570.826 183.936C570.698 184.736 570.458 185.632 570.106 186.624C569.786 187.584 569.306 188.512 568.666 189.408C568.058 190.304 567.258 191.04 566.266 191.616C565.306 192.192 564.106 192.48 562.666 192.48C561.738 192.48 560.778 192.336 559.786 192.048C558.826 191.792 557.93 191.36 557.098 190.752C556.266 190.112 555.594 189.232 555.082 188.112C554.57 186.992 554.314 185.6 554.314 183.936V168H558.154V182.976C558.154 184.416 558.378 185.552 558.826 186.384C559.306 187.184 559.946 187.76 560.746 188.112C561.546 188.464 562.442 188.64 563.434 188.64C565.066 188.64 566.426 188.224 567.514 187.392C568.602 186.56 569.434 185.536 570.01 184.32C570.586 183.104 570.938 181.936 571.066 180.816Z" fill="black"/>
</svg>
