<svg width="197" height="187" viewBox="0 0 197 187" fill="none" xmlns="http://www.w3.org/2000/svg">
<path d="M3.41421 51.4142C2.15428 50.1543 3.04662 48 4.82843 48H30C31.1046 48 32 48.8954 32 50V75.1716C32 76.9534 29.8457 77.8457 28.5858 76.5858L3.41421 51.4142Z" fill="#F2B84B"/>
<path d="M127 152.413C93.5 152.413 93.5 152.413 93.5 120.5C93.5001 83 127 83 127 83H196.882C196.882 83 160.5 152.413 127 152.413Z" fill="#1A4D3A"/>
<path d="M89.5908 0C118.105 0.000193583 141.22 23.1152 141.22 51.6289V77H127V81.8281C127 77.0567 126.996 77.0007 126.993 77H126.923C126.889 77.0003 126.846 77.001 126.796 77.002C126.695 77.0038 126.563 77.0076 126.4 77.0137C126.076 77.0258 125.63 77.0489 125.082 77.0928C123.988 77.1803 122.469 77.351 120.665 77.6875C117.082 78.356 112.23 79.7035 107.319 82.4521C102.373 85.2205 97.345 89.4267 93.5791 95.75C89.8089 102.081 87.5 110.204 87.5 120.5C87.5 128.324 87.4899 134.726 88.0635 139.645C88.6352 144.547 89.9041 149.295 93.5488 152.768C97.134 156.183 101.968 157.348 107.001 157.881C112.103 158.421 118.765 158.413 127 158.413C137.308 158.413 147.119 153.168 155.62 146.394L186.174 176.743C189.973 180.517 187.3 187 181.945 187H107.375C69.0395 187 37.9619 155.922 37.9619 117.587V51.6289C37.962 23.1151 61.077 0 89.5908 0ZM96.6689 147.264C96.6585 147.249 96.6471 147.236 96.6367 147.222L96.6172 147.193C96.6342 147.217 96.6517 147.24 96.6689 147.264ZM89.4502 35C83.4021 35.0002 78.4991 39.8703 78.499 45.8779C78.499 51.8856 83.402 56.7556 89.4502 56.7559C95.4986 56.7559 100.402 51.8857 100.402 45.8779C100.402 39.8702 95.4985 35 89.4502 35Z" fill="#2E7D58"/>
</svg>
